<?xml version="1.0" encoding="utf-8" standalone="no"?>
<!DOCTYPE svg PUBLIC "-//W3C//DTD SVG 1.1//EN"
  "http://www.w3.org/Graphics/SVG/1.1/DTD/svg11.dtd">
<svg xmlns:xlink="http://www.w3.org/1999/xlink" width="460.8pt" height="345.6pt" viewBox="0 0 460.8 345.6" xmlns="http://www.w3.org/2000/svg" version="1.1">
 <metadata>
  <rdf:RDF xmlns:dc="http://purl.org/dc/elements/1.1/" xmlns:cc="http://creativecommons.org/ns#" xmlns:rdf="http://www.w3.org/1999/02/22-rdf-syntax-ns#">
   <cc:Work>
    <dc:type rdf:resource="http://purl.org/dc/dcmitype/StillImage"/>
    <dc:date>2024-04-25T09:48:28.652436</dc:date>
    <dc:format>image/svg+xml</dc:format>
    <dc:creator>
     <cc:Agent>
      <dc:title>Matplotlib v3.8.4, https://matplotlib.org/</dc:title>
     </cc:Agent>
    </dc:creator>
   </cc:Work>
  </rdf:RDF>
 </metadata>
 <defs>
  <style type="text/css">*{stroke-linejoin: round; stroke-linecap: butt}</style>
 </defs>
 <g id="figure_1">
  <g id="patch_1">
   <path d="M 0 345.6 
L 460.8 345.6 
L 460.8 0 
L 0 0 
z
" style="fill: #ffffff"/>
  </g>
  <g id="axes_1">
   <g id="patch_2">
    <path d="M 57.6 307.584 
L 414.72 307.584 
L 414.72 41.472 
L 57.6 41.472 
z
" style="fill: #ffffff"/>
   </g>
   <g id="matplotlib.axis_1">
    <g id="xtick_1">
     <g id="line2d_1">
      <defs>
       <path id="me4bac0737c" d="M 0 0 
L 0 3.5 
" style="stroke: #000000; stroke-width: 0.8"/>
      </defs>
      <g>
       <use xlink:href="#me4bac0737c" x="65.289187" y="307.584" style="stroke: #000000; stroke-width: 0.8"/>
      </g>
     </g>
     <g id="text_1">
      <!-- 0 -->
      <g transform="translate(62.107937 322.182437) scale(0.1 -0.1)">
       <defs>
        <path id="DejaVuSans-30" d="M 2034 4250 
Q 1547 4250 1301 3770 
Q 1056 3291 1056 2328 
Q 1056 1369 1301 889 
Q 1547 409 2034 409 
Q 2525 409 2770 889 
Q 3016 1369 3016 2328 
Q 3016 3291 2770 3770 
Q 2525 4250 2034 4250 
z
M 2034 4750 
Q 2819 4750 3233 4129 
Q 3647 3509 3647 2328 
Q 3647 1150 3233 529 
Q 2819 -91 2034 -91 
Q 1250 -91 836 529 
Q 422 1150 422 2328 
Q 422 3509 836 4129 
Q 1250 4750 2034 4750 
z
" transform="scale(0.015625)"/>
       </defs>
       <use xlink:href="#DejaVuSans-30"/>
      </g>
     </g>
    </g>
    <g id="xtick_2">
     <g id="line2d_2">
      <g>
       <use xlink:href="#me4bac0737c" x="108.00689" y="307.584" style="stroke: #000000; stroke-width: 0.8"/>
      </g>
     </g>
     <g id="text_2">
      <!-- 20 -->
      <g transform="translate(101.64439 322.182437) scale(0.1 -0.1)">
       <defs>
        <path id="DejaVuSans-32" d="M 1228 531 
L 3431 531 
L 3431 0 
L 469 0 
L 469 531 
Q 828 903 1448 1529 
Q 2069 2156 2228 2338 
Q 2531 2678 2651 2914 
Q 2772 3150 2772 3378 
Q 2772 3750 2511 3984 
Q 2250 4219 1831 4219 
Q 1534 4219 1204 4116 
Q 875 4013 500 3803 
L 500 4441 
Q 881 4594 1212 4672 
Q 1544 4750 1819 4750 
Q 2544 4750 2975 4387 
Q 3406 4025 3406 3419 
Q 3406 3131 3298 2873 
Q 3191 2616 2906 2266 
Q 2828 2175 2409 1742 
Q 1991 1309 1228 531 
z
" transform="scale(0.015625)"/>
       </defs>
       <use xlink:href="#DejaVuSans-32"/>
       <use xlink:href="#DejaVuSans-30" x="63.623047"/>
      </g>
     </g>
    </g>
    <g id="xtick_3">
     <g id="line2d_3">
      <g>
       <use xlink:href="#me4bac0737c" x="150.724593" y="307.584" style="stroke: #000000; stroke-width: 0.8"/>
      </g>
     </g>
     <g id="text_3">
      <!-- 40 -->
      <g transform="translate(144.362093 322.182437) scale(0.1 -0.1)">
       <defs>
        <path id="DejaVuSans-34" d="M 2419 4116 
L 825 1625 
L 2419 1625 
L 2419 4116 
z
M 2253 4666 
L 3047 4666 
L 3047 1625 
L 3713 1625 
L 3713 1100 
L 3047 1100 
L 3047 0 
L 2419 0 
L 2419 1100 
L 313 1100 
L 313 1709 
L 2253 4666 
z
" transform="scale(0.015625)"/>
       </defs>
       <use xlink:href="#DejaVuSans-34"/>
       <use xlink:href="#DejaVuSans-30" x="63.623047"/>
      </g>
     </g>
    </g>
    <g id="xtick_4">
     <g id="line2d_4">
      <g>
       <use xlink:href="#me4bac0737c" x="193.442297" y="307.584" style="stroke: #000000; stroke-width: 0.8"/>
      </g>
     </g>
     <g id="text_4">
      <!-- 60 -->
      <g transform="translate(187.079797 322.182437) scale(0.1 -0.1)">
       <defs>
        <path id="DejaVuSans-36" d="M 2113 2584 
Q 1688 2584 1439 2293 
Q 1191 2003 1191 1497 
Q 1191 994 1439 701 
Q 1688 409 2113 409 
Q 2538 409 2786 701 
Q 3034 994 3034 1497 
Q 3034 2003 2786 2293 
Q 2538 2584 2113 2584 
z
M 3366 4563 
L 3366 3988 
Q 3128 4100 2886 4159 
Q 2644 4219 2406 4219 
Q 1781 4219 1451 3797 
Q 1122 3375 1075 2522 
Q 1259 2794 1537 2939 
Q 1816 3084 2150 3084 
Q 2853 3084 3261 2657 
Q 3669 2231 3669 1497 
Q 3669 778 3244 343 
Q 2819 -91 2113 -91 
Q 1303 -91 875 529 
Q 447 1150 447 2328 
Q 447 3434 972 4092 
Q 1497 4750 2381 4750 
Q 2619 4750 2861 4703 
Q 3103 4656 3366 4563 
z
" transform="scale(0.015625)"/>
       </defs>
       <use xlink:href="#DejaVuSans-36"/>
       <use xlink:href="#DejaVuSans-30" x="63.623047"/>
      </g>
     </g>
    </g>
    <g id="xtick_5">
     <g id="line2d_5">
      <g>
       <use xlink:href="#me4bac0737c" x="236.16" y="307.584" style="stroke: #000000; stroke-width: 0.8"/>
      </g>
     </g>
     <g id="text_5">
      <!-- 80 -->
      <g transform="translate(229.7975 322.182437) scale(0.1 -0.1)">
       <defs>
        <path id="DejaVuSans-38" d="M 2034 2216 
Q 1584 2216 1326 1975 
Q 1069 1734 1069 1313 
Q 1069 891 1326 650 
Q 1584 409 2034 409 
Q 2484 409 2743 651 
Q 3003 894 3003 1313 
Q 3003 1734 2745 1975 
Q 2488 2216 2034 2216 
z
M 1403 2484 
Q 997 2584 770 2862 
Q 544 3141 544 3541 
Q 544 4100 942 4425 
Q 1341 4750 2034 4750 
Q 2731 4750 3128 4425 
Q 3525 4100 3525 3541 
Q 3525 3141 3298 2862 
Q 3072 2584 2669 2484 
Q 3125 2378 3379 2068 
Q 3634 1759 3634 1313 
Q 3634 634 3220 271 
Q 2806 -91 2034 -91 
Q 1263 -91 848 271 
Q 434 634 434 1313 
Q 434 1759 690 2068 
Q 947 2378 1403 2484 
z
M 1172 3481 
Q 1172 3119 1398 2916 
Q 1625 2713 2034 2713 
Q 2441 2713 2670 2916 
Q 2900 3119 2900 3481 
Q 2900 3844 2670 4047 
Q 2441 4250 2034 4250 
Q 1625 4250 1398 4047 
Q 1172 3844 1172 3481 
z
" transform="scale(0.015625)"/>
       </defs>
       <use xlink:href="#DejaVuSans-38"/>
       <use xlink:href="#DejaVuSans-30" x="63.623047"/>
      </g>
     </g>
    </g>
    <g id="xtick_6">
     <g id="line2d_6">
      <g>
       <use xlink:href="#me4bac0737c" x="278.877703" y="307.584" style="stroke: #000000; stroke-width: 0.8"/>
      </g>
     </g>
     <g id="text_6">
      <!-- 100 -->
      <g transform="translate(269.333953 322.182437) scale(0.1 -0.1)">
       <defs>
        <path id="DejaVuSans-31" d="M 794 531 
L 1825 531 
L 1825 4091 
L 703 3866 
L 703 4441 
L 1819 4666 
L 2450 4666 
L 2450 531 
L 3481 531 
L 3481 0 
L 794 0 
L 794 531 
z
" transform="scale(0.015625)"/>
       </defs>
       <use xlink:href="#DejaVuSans-31"/>
       <use xlink:href="#DejaVuSans-30" x="63.623047"/>
       <use xlink:href="#DejaVuSans-30" x="127.246094"/>
      </g>
     </g>
    </g>
    <g id="xtick_7">
     <g id="line2d_7">
      <g>
       <use xlink:href="#me4bac0737c" x="321.595407" y="307.584" style="stroke: #000000; stroke-width: 0.8"/>
      </g>
     </g>
     <g id="text_7">
      <!-- 120 -->
      <g transform="translate(312.051657 322.182437) scale(0.1 -0.1)">
       <use xlink:href="#DejaVuSans-31"/>
       <use xlink:href="#DejaVuSans-32" x="63.623047"/>
       <use xlink:href="#DejaVuSans-30" x="127.246094"/>
      </g>
     </g>
    </g>
    <g id="xtick_8">
     <g id="line2d_8">
      <g>
       <use xlink:href="#me4bac0737c" x="364.31311" y="307.584" style="stroke: #000000; stroke-width: 0.8"/>
      </g>
     </g>
     <g id="text_8">
      <!-- 140 -->
      <g transform="translate(354.76936 322.182437) scale(0.1 -0.1)">
       <use xlink:href="#DejaVuSans-31"/>
       <use xlink:href="#DejaVuSans-34" x="63.623047"/>
       <use xlink:href="#DejaVuSans-30" x="127.246094"/>
      </g>
     </g>
    </g>
    <g id="xtick_9">
     <g id="line2d_9">
      <g>
       <use xlink:href="#me4bac0737c" x="407.030813" y="307.584" style="stroke: #000000; stroke-width: 0.8"/>
      </g>
     </g>
     <g id="text_9">
      <!-- 160 -->
      <g transform="translate(397.487063 322.182437) scale(0.1 -0.1)">
       <use xlink:href="#DejaVuSans-31"/>
       <use xlink:href="#DejaVuSans-36" x="63.623047"/>
       <use xlink:href="#DejaVuSans-30" x="127.246094"/>
      </g>
     </g>
    </g>
    <g id="text_10">
     <!-- window size (cycles) -->
     <g transform="translate(184.888125 335.860562) scale(0.1 -0.1)">
      <defs>
       <path id="DejaVuSans-77" d="M 269 3500 
L 844 3500 
L 1563 769 
L 2278 3500 
L 2956 3500 
L 3675 769 
L 4391 3500 
L 4966 3500 
L 4050 0 
L 3372 0 
L 2619 2869 
L 1863 0 
L 1184 0 
L 269 3500 
z
" transform="scale(0.015625)"/>
       <path id="DejaVuSans-69" d="M 603 3500 
L 1178 3500 
L 1178 0 
L 603 0 
L 603 3500 
z
M 603 4863 
L 1178 4863 
L 1178 4134 
L 603 4134 
L 603 4863 
z
" transform="scale(0.015625)"/>
       <path id="DejaVuSans-6e" d="M 3513 2113 
L 3513 0 
L 2938 0 
L 2938 2094 
Q 2938 2591 2744 2837 
Q 2550 3084 2163 3084 
Q 1697 3084 1428 2787 
Q 1159 2491 1159 1978 
L 1159 0 
L 581 0 
L 581 3500 
L 1159 3500 
L 1159 2956 
Q 1366 3272 1645 3428 
Q 1925 3584 2291 3584 
Q 2894 3584 3203 3211 
Q 3513 2838 3513 2113 
z
" transform="scale(0.015625)"/>
       <path id="DejaVuSans-64" d="M 2906 2969 
L 2906 4863 
L 3481 4863 
L 3481 0 
L 2906 0 
L 2906 525 
Q 2725 213 2448 61 
Q 2172 -91 1784 -91 
Q 1150 -91 751 415 
Q 353 922 353 1747 
Q 353 2572 751 3078 
Q 1150 3584 1784 3584 
Q 2172 3584 2448 3432 
Q 2725 3281 2906 2969 
z
M 947 1747 
Q 947 1113 1208 752 
Q 1469 391 1925 391 
Q 2381 391 2643 752 
Q 2906 1113 2906 1747 
Q 2906 2381 2643 2742 
Q 2381 3103 1925 3103 
Q 1469 3103 1208 2742 
Q 947 2381 947 1747 
z
" transform="scale(0.015625)"/>
       <path id="DejaVuSans-6f" d="M 1959 3097 
Q 1497 3097 1228 2736 
Q 959 2375 959 1747 
Q 959 1119 1226 758 
Q 1494 397 1959 397 
Q 2419 397 2687 759 
Q 2956 1122 2956 1747 
Q 2956 2369 2687 2733 
Q 2419 3097 1959 3097 
z
M 1959 3584 
Q 2709 3584 3137 3096 
Q 3566 2609 3566 1747 
Q 3566 888 3137 398 
Q 2709 -91 1959 -91 
Q 1206 -91 779 398 
Q 353 888 353 1747 
Q 353 2609 779 3096 
Q 1206 3584 1959 3584 
z
" transform="scale(0.015625)"/>
       <path id="DejaVuSans-20" transform="scale(0.015625)"/>
       <path id="DejaVuSans-73" d="M 2834 3397 
L 2834 2853 
Q 2591 2978 2328 3040 
Q 2066 3103 1784 3103 
Q 1356 3103 1142 2972 
Q 928 2841 928 2578 
Q 928 2378 1081 2264 
Q 1234 2150 1697 2047 
L 1894 2003 
Q 2506 1872 2764 1633 
Q 3022 1394 3022 966 
Q 3022 478 2636 193 
Q 2250 -91 1575 -91 
Q 1294 -91 989 -36 
Q 684 19 347 128 
L 347 722 
Q 666 556 975 473 
Q 1284 391 1588 391 
Q 1994 391 2212 530 
Q 2431 669 2431 922 
Q 2431 1156 2273 1281 
Q 2116 1406 1581 1522 
L 1381 1569 
Q 847 1681 609 1914 
Q 372 2147 372 2553 
Q 372 3047 722 3315 
Q 1072 3584 1716 3584 
Q 2034 3584 2315 3537 
Q 2597 3491 2834 3397 
z
" transform="scale(0.015625)"/>
       <path id="DejaVuSans-7a" d="M 353 3500 
L 3084 3500 
L 3084 2975 
L 922 459 
L 3084 459 
L 3084 0 
L 275 0 
L 275 525 
L 2438 3041 
L 353 3041 
L 353 3500 
z
" transform="scale(0.015625)"/>
       <path id="DejaVuSans-65" d="M 3597 1894 
L 3597 1613 
L 953 1613 
Q 991 1019 1311 708 
Q 1631 397 2203 397 
Q 2534 397 2845 478 
Q 3156 559 3463 722 
L 3463 178 
Q 3153 47 2828 -22 
Q 2503 -91 2169 -91 
Q 1331 -91 842 396 
Q 353 884 353 1716 
Q 353 2575 817 3079 
Q 1281 3584 2069 3584 
Q 2775 3584 3186 3129 
Q 3597 2675 3597 1894 
z
M 3022 2063 
Q 3016 2534 2758 2815 
Q 2500 3097 2075 3097 
Q 1594 3097 1305 2825 
Q 1016 2553 972 2059 
L 3022 2063 
z
" transform="scale(0.015625)"/>
       <path id="DejaVuSans-28" d="M 1984 4856 
Q 1566 4138 1362 3434 
Q 1159 2731 1159 2009 
Q 1159 1288 1364 580 
Q 1569 -128 1984 -844 
L 1484 -844 
Q 1016 -109 783 600 
Q 550 1309 550 2009 
Q 550 2706 781 3412 
Q 1013 4119 1484 4856 
L 1984 4856 
z
" transform="scale(0.015625)"/>
       <path id="DejaVuSans-63" d="M 3122 3366 
L 3122 2828 
Q 2878 2963 2633 3030 
Q 2388 3097 2138 3097 
Q 1578 3097 1268 2742 
Q 959 2388 959 1747 
Q 959 1106 1268 751 
Q 1578 397 2138 397 
Q 2388 397 2633 464 
Q 2878 531 3122 666 
L 3122 134 
Q 2881 22 2623 -34 
Q 2366 -91 2075 -91 
Q 1284 -91 818 406 
Q 353 903 353 1747 
Q 353 2603 823 3093 
Q 1294 3584 2113 3584 
Q 2378 3584 2631 3529 
Q 2884 3475 3122 3366 
z
" transform="scale(0.015625)"/>
       <path id="DejaVuSans-79" d="M 2059 -325 
Q 1816 -950 1584 -1140 
Q 1353 -1331 966 -1331 
L 506 -1331 
L 506 -850 
L 844 -850 
Q 1081 -850 1212 -737 
Q 1344 -625 1503 -206 
L 1606 56 
L 191 3500 
L 800 3500 
L 1894 763 
L 2988 3500 
L 3597 3500 
L 2059 -325 
z
" transform="scale(0.015625)"/>
       <path id="DejaVuSans-6c" d="M 603 4863 
L 1178 4863 
L 1178 0 
L 603 0 
L 603 4863 
z
" transform="scale(0.015625)"/>
       <path id="DejaVuSans-29" d="M 513 4856 
L 1013 4856 
Q 1481 4119 1714 3412 
Q 1947 2706 1947 2009 
Q 1947 1309 1714 600 
Q 1481 -109 1013 -844 
L 513 -844 
Q 928 -128 1133 580 
Q 1338 1288 1338 2009 
Q 1338 2731 1133 3434 
Q 928 4138 513 4856 
z
" transform="scale(0.015625)"/>
      </defs>
      <use xlink:href="#DejaVuSans-77"/>
      <use xlink:href="#DejaVuSans-69" x="81.787109"/>
      <use xlink:href="#DejaVuSans-6e" x="109.570312"/>
      <use xlink:href="#DejaVuSans-64" x="172.949219"/>
      <use xlink:href="#DejaVuSans-6f" x="236.425781"/>
      <use xlink:href="#DejaVuSans-77" x="297.607422"/>
      <use xlink:href="#DejaVuSans-20" x="379.394531"/>
      <use xlink:href="#DejaVuSans-73" x="411.181641"/>
      <use xlink:href="#DejaVuSans-69" x="463.28125"/>
      <use xlink:href="#DejaVuSans-7a" x="491.064453"/>
      <use xlink:href="#DejaVuSans-65" x="543.554688"/>
      <use xlink:href="#DejaVuSans-20" x="605.078125"/>
      <use xlink:href="#DejaVuSans-28" x="636.865234"/>
      <use xlink:href="#DejaVuSans-63" x="675.878906"/>
      <use xlink:href="#DejaVuSans-79" x="730.859375"/>
      <use xlink:href="#DejaVuSans-63" x="790.039062"/>
      <use xlink:href="#DejaVuSans-6c" x="845.019531"/>
      <use xlink:href="#DejaVuSans-65" x="872.802734"/>
      <use xlink:href="#DejaVuSans-73" x="934.326172"/>
      <use xlink:href="#DejaVuSans-29" x="986.425781"/>
     </g>
    </g>
   </g>
   <g id="matplotlib.axis_2">
    <g id="ytick_1">
     <g id="line2d_10">
      <defs>
       <path id="m2955583029" d="M 0 0 
L -3.5 0 
" style="stroke: #000000; stroke-width: 0.8"/>
      </defs>
      <g>
       <use xlink:href="#m2955583029" x="57.6" y="295.493083" style="stroke: #000000; stroke-width: 0.8"/>
      </g>
     </g>
     <g id="text_11">
      <!-- 0 -->
      <g transform="translate(44.2375 299.292301) scale(0.1 -0.1)">
       <use xlink:href="#DejaVuSans-30"/>
      </g>
     </g>
    </g>
    <g id="ytick_2">
     <g id="line2d_11">
      <g>
       <use xlink:href="#m2955583029" x="57.6" y="261.151536" style="stroke: #000000; stroke-width: 0.8"/>
      </g>
     </g>
     <g id="text_12">
      <!-- 2000 -->
      <g transform="translate(25.15 264.950754) scale(0.1 -0.1)">
       <use xlink:href="#DejaVuSans-32"/>
       <use xlink:href="#DejaVuSans-30" x="63.623047"/>
       <use xlink:href="#DejaVuSans-30" x="127.246094"/>
       <use xlink:href="#DejaVuSans-30" x="190.869141"/>
      </g>
     </g>
    </g>
    <g id="ytick_3">
     <g id="line2d_12">
      <g>
       <use xlink:href="#m2955583029" x="57.6" y="226.809989" style="stroke: #000000; stroke-width: 0.8"/>
      </g>
     </g>
     <g id="text_13">
      <!-- 4000 -->
      <g transform="translate(25.15 230.609207) scale(0.1 -0.1)">
       <use xlink:href="#DejaVuSans-34"/>
       <use xlink:href="#DejaVuSans-30" x="63.623047"/>
       <use xlink:href="#DejaVuSans-30" x="127.246094"/>
       <use xlink:href="#DejaVuSans-30" x="190.869141"/>
      </g>
     </g>
    </g>
    <g id="ytick_4">
     <g id="line2d_13">
      <g>
       <use xlink:href="#m2955583029" x="57.6" y="192.468442" style="stroke: #000000; stroke-width: 0.8"/>
      </g>
     </g>
     <g id="text_14">
      <!-- 6000 -->
      <g transform="translate(25.15 196.26766) scale(0.1 -0.1)">
       <use xlink:href="#DejaVuSans-36"/>
       <use xlink:href="#DejaVuSans-30" x="63.623047"/>
       <use xlink:href="#DejaVuSans-30" x="127.246094"/>
       <use xlink:href="#DejaVuSans-30" x="190.869141"/>
      </g>
     </g>
    </g>
    <g id="ytick_5">
     <g id="line2d_14">
      <g>
       <use xlink:href="#m2955583029" x="57.6" y="158.126895" style="stroke: #000000; stroke-width: 0.8"/>
      </g>
     </g>
     <g id="text_15">
      <!-- 8000 -->
      <g transform="translate(25.15 161.926113) scale(0.1 -0.1)">
       <use xlink:href="#DejaVuSans-38"/>
       <use xlink:href="#DejaVuSans-30" x="63.623047"/>
       <use xlink:href="#DejaVuSans-30" x="127.246094"/>
       <use xlink:href="#DejaVuSans-30" x="190.869141"/>
      </g>
     </g>
    </g>
    <g id="ytick_6">
     <g id="line2d_15">
      <g>
       <use xlink:href="#m2955583029" x="57.6" y="123.785347" style="stroke: #000000; stroke-width: 0.8"/>
      </g>
     </g>
     <g id="text_16">
      <!-- 10000 -->
      <g transform="translate(18.7875 127.584566) scale(0.1 -0.1)">
       <use xlink:href="#DejaVuSans-31"/>
       <use xlink:href="#DejaVuSans-30" x="63.623047"/>
       <use xlink:href="#DejaVuSans-30" x="127.246094"/>
       <use xlink:href="#DejaVuSans-30" x="190.869141"/>
       <use xlink:href="#DejaVuSans-30" x="254.492188"/>
      </g>
     </g>
    </g>
    <g id="ytick_7">
     <g id="line2d_16">
      <g>
       <use xlink:href="#m2955583029" x="57.6" y="89.4438" style="stroke: #000000; stroke-width: 0.8"/>
      </g>
     </g>
     <g id="text_17">
      <!-- 12000 -->
      <g transform="translate(18.7875 93.243019) scale(0.1 -0.1)">
       <use xlink:href="#DejaVuSans-31"/>
       <use xlink:href="#DejaVuSans-32" x="63.623047"/>
       <use xlink:href="#DejaVuSans-30" x="127.246094"/>
       <use xlink:href="#DejaVuSans-30" x="190.869141"/>
       <use xlink:href="#DejaVuSans-30" x="254.492188"/>
      </g>
     </g>
    </g>
    <g id="ytick_8">
     <g id="line2d_17">
      <g>
       <use xlink:href="#m2955583029" x="57.6" y="55.102253" style="stroke: #000000; stroke-width: 0.8"/>
      </g>
     </g>
     <g id="text_18">
      <!-- 14000 -->
      <g transform="translate(18.7875 58.901472) scale(0.1 -0.1)">
       <use xlink:href="#DejaVuSans-31"/>
       <use xlink:href="#DejaVuSans-34" x="63.623047"/>
       <use xlink:href="#DejaVuSans-30" x="127.246094"/>
       <use xlink:href="#DejaVuSans-30" x="190.869141"/>
       <use xlink:href="#DejaVuSans-30" x="254.492188"/>
      </g>
     </g>
    </g>
    <g id="text_19">
     <!-- average time (s) -->
     <g transform="translate(12.707812 215.978781) rotate(-90) scale(0.1 -0.1)">
      <defs>
       <path id="DejaVuSans-61" d="M 2194 1759 
Q 1497 1759 1228 1600 
Q 959 1441 959 1056 
Q 959 750 1161 570 
Q 1363 391 1709 391 
Q 2188 391 2477 730 
Q 2766 1069 2766 1631 
L 2766 1759 
L 2194 1759 
z
M 3341 1997 
L 3341 0 
L 2766 0 
L 2766 531 
Q 2569 213 2275 61 
Q 1981 -91 1556 -91 
Q 1019 -91 701 211 
Q 384 513 384 1019 
Q 384 1609 779 1909 
Q 1175 2209 1959 2209 
L 2766 2209 
L 2766 2266 
Q 2766 2663 2505 2880 
Q 2244 3097 1772 3097 
Q 1472 3097 1187 3025 
Q 903 2953 641 2809 
L 641 3341 
Q 956 3463 1253 3523 
Q 1550 3584 1831 3584 
Q 2591 3584 2966 3190 
Q 3341 2797 3341 1997 
z
" transform="scale(0.015625)"/>
       <path id="DejaVuSans-76" d="M 191 3500 
L 800 3500 
L 1894 563 
L 2988 3500 
L 3597 3500 
L 2284 0 
L 1503 0 
L 191 3500 
z
" transform="scale(0.015625)"/>
       <path id="DejaVuSans-72" d="M 2631 2963 
Q 2534 3019 2420 3045 
Q 2306 3072 2169 3072 
Q 1681 3072 1420 2755 
Q 1159 2438 1159 1844 
L 1159 0 
L 581 0 
L 581 3500 
L 1159 3500 
L 1159 2956 
Q 1341 3275 1631 3429 
Q 1922 3584 2338 3584 
Q 2397 3584 2469 3576 
Q 2541 3569 2628 3553 
L 2631 2963 
z
" transform="scale(0.015625)"/>
       <path id="DejaVuSans-67" d="M 2906 1791 
Q 2906 2416 2648 2759 
Q 2391 3103 1925 3103 
Q 1463 3103 1205 2759 
Q 947 2416 947 1791 
Q 947 1169 1205 825 
Q 1463 481 1925 481 
Q 2391 481 2648 825 
Q 2906 1169 2906 1791 
z
M 3481 434 
Q 3481 -459 3084 -895 
Q 2688 -1331 1869 -1331 
Q 1566 -1331 1297 -1286 
Q 1028 -1241 775 -1147 
L 775 -588 
Q 1028 -725 1275 -790 
Q 1522 -856 1778 -856 
Q 2344 -856 2625 -561 
Q 2906 -266 2906 331 
L 2906 616 
Q 2728 306 2450 153 
Q 2172 0 1784 0 
Q 1141 0 747 490 
Q 353 981 353 1791 
Q 353 2603 747 3093 
Q 1141 3584 1784 3584 
Q 2172 3584 2450 3431 
Q 2728 3278 2906 2969 
L 2906 3500 
L 3481 3500 
L 3481 434 
z
" transform="scale(0.015625)"/>
       <path id="DejaVuSans-74" d="M 1172 4494 
L 1172 3500 
L 2356 3500 
L 2356 3053 
L 1172 3053 
L 1172 1153 
Q 1172 725 1289 603 
Q 1406 481 1766 481 
L 2356 481 
L 2356 0 
L 1766 0 
Q 1100 0 847 248 
Q 594 497 594 1153 
L 594 3053 
L 172 3053 
L 172 3500 
L 594 3500 
L 594 4494 
L 1172 4494 
z
" transform="scale(0.015625)"/>
       <path id="DejaVuSans-6d" d="M 3328 2828 
Q 3544 3216 3844 3400 
Q 4144 3584 4550 3584 
Q 5097 3584 5394 3201 
Q 5691 2819 5691 2113 
L 5691 0 
L 5113 0 
L 5113 2094 
Q 5113 2597 4934 2840 
Q 4756 3084 4391 3084 
Q 3944 3084 3684 2787 
Q 3425 2491 3425 1978 
L 3425 0 
L 2847 0 
L 2847 2094 
Q 2847 2600 2669 2842 
Q 2491 3084 2119 3084 
Q 1678 3084 1418 2786 
Q 1159 2488 1159 1978 
L 1159 0 
L 581 0 
L 581 3500 
L 1159 3500 
L 1159 2956 
Q 1356 3278 1631 3431 
Q 1906 3584 2284 3584 
Q 2666 3584 2933 3390 
Q 3200 3197 3328 2828 
z
" transform="scale(0.015625)"/>
      </defs>
      <use xlink:href="#DejaVuSans-61"/>
      <use xlink:href="#DejaVuSans-76" x="61.279297"/>
      <use xlink:href="#DejaVuSans-65" x="120.458984"/>
      <use xlink:href="#DejaVuSans-72" x="181.982422"/>
      <use xlink:href="#DejaVuSans-61" x="223.095703"/>
      <use xlink:href="#DejaVuSans-67" x="284.375"/>
      <use xlink:href="#DejaVuSans-65" x="347.851562"/>
      <use xlink:href="#DejaVuSans-20" x="409.375"/>
      <use xlink:href="#DejaVuSans-74" x="441.162109"/>
      <use xlink:href="#DejaVuSans-69" x="480.371094"/>
      <use xlink:href="#DejaVuSans-6d" x="508.154297"/>
      <use xlink:href="#DejaVuSans-65" x="605.566406"/>
      <use xlink:href="#DejaVuSans-20" x="667.089844"/>
      <use xlink:href="#DejaVuSans-28" x="698.876953"/>
      <use xlink:href="#DejaVuSans-73" x="737.890625"/>
      <use xlink:href="#DejaVuSans-29" x="789.990234"/>
     </g>
    </g>
   </g>
   <g id="line2d_18">
    <path d="M 75.968612 295.438223 
L 78.104498 295.384514 
L 80.240383 295.330308 
L 82.376268 295.270351 
L 84.512153 295.209749 
L 86.648038 295.139964 
L 88.783923 295.067598 
L 90.919809 294.995 
L 93.055694 294.924599 
L 95.191579 294.830503 
L 97.327464 294.743964 
L 99.463349 294.634778 
L 101.599234 294.522611 
L 103.73512 294.4098 
L 105.871005 294.301744 
L 108.00689 294.172181 
L 110.142775 293.992083 
L 112.27866 293.846655 
L 114.414545 293.678659 
L 116.550431 293.539992 
L 118.686316 293.421569 
L 120.822201 293.213796 
L 122.958086 293.017557 
L 125.093971 292.821358 
L 127.229856 292.652066 
L 129.365742 292.320458 
L 131.501627 292.20556 
L 133.637512 291.841762 
L 135.773397 291.582855 
L 137.909282 291.062497 
L 140.045167 290.916944 
L 142.181053 290.384267 
L 144.316938 290.012767 
L 146.452823 289.967789 
L 148.588708 289.340803 
L 150.724593 289.220991 
L 152.860478 288.384299 
L 154.996364 288.352249 
L 157.132249 287.828649 
L 159.268134 287.143341 
L 161.404019 286.817578 
L 163.539904 286.762887 
L 165.675789 286.150823 
L 167.811675 285.515758 
L 169.94756 284.540516 
L 172.083445 284.163093 
L 174.21933 283.589317 
L 176.355215 282.177728 
L 178.4911 282.306485 
L 180.626986 281.797287 
L 182.762871 279.917593 
L 184.898756 279.73741 
L 187.034641 278.884855 
L 189.170526 277.501155 
L 191.306411 277.176517 
L 193.442297 277.05096 
L 195.578182 276.851004 
L 197.714067 275.196726 
L 199.849952 274.113316 
L 201.985837 272.11882 
L 204.121722 273.671215 
L 206.257608 271.164773 
L 208.393493 271.615883 
L 210.529378 269.898702 
L 212.665263 267.667106 
L 214.801148 268.814941 
L 216.937033 268.247451 
L 219.072919 266.93126 
L 221.208804 266.197693 
L 223.344689 265.76292 
L 225.480574 260.710744 
L 227.616459 263.435942 
L 229.752344 260.351397 
L 231.88823 262.598872 
L 234.024115 258.344443 
L 236.16 260.944602 
L 238.295885 258.188483 
L 240.43177 249.749836 
L 242.567656 250.056304 
L 244.703541 246.716883 
L 246.839426 248.62056 
L 248.975311 246.522308 
L 251.111196 246.309457 
L 253.247081 245.387903 
L 255.382967 242.373672 
L 257.518852 240.089124 
L 259.654737 238.141221 
L 261.790622 239.357784 
L 263.926507 239.908055 
L 266.062392 236.881585 
L 268.198278 235.628419 
L 270.334163 233.745325 
L 272.470048 234.723702 
L 274.605933 228.50368 
L 276.741818 229.764026 
L 278.877703 233.422927 
L 281.013589 225.503199 
L 283.149474 226.005557 
L 285.285359 221.713868 
L 287.421244 226.188227 
L 289.557129 213.310547 
L 291.693014 209.73955 
L 293.8289 211.277616 
L 295.964785 212.227843 
L 298.10067 201.885578 
L 300.236555 203.531686 
L 302.37244 205.497982 
L 304.508325 207.359598 
L 306.644211 203.715791 
L 308.780096 201.395566 
L 310.915981 177.102141 
L 313.051866 145.236591 
L 315.187751 135.077393 
L 317.323636 131.643689 
L 319.459522 132.452012 
L 321.595407 140.52539 
L 323.731292 150.120475 
L 325.867177 117.510931 
L 328.003062 113.955241 
L 330.138947 107.524133 
L 332.274833 93.552591 
L 334.410718 89.636334 
L 336.546603 94.317638 
L 338.682488 62.454453 
L 340.818373 53.568 
" clip-path="url(#p4bb86535cc)" style="fill: none; stroke: #1f77b4; stroke-width: 1.5; stroke-linecap: square"/>
   </g>
   <g id="line2d_19">
    <path d="M 73.832727 295.487829 
L 93.055694 295.400352 
L 103.73512 295.298692 
L 116.550431 295.035054 
L 120.822201 294.931652 
L 122.958086 295.030939 
L 125.093971 294.832577 
L 135.773397 294.551384 
L 137.909282 294.63685 
L 140.045167 294.387481 
L 144.316938 294.324013 
L 148.588708 293.983477 
L 150.724593 294.147048 
L 152.860478 293.715309 
L 154.996364 293.746971 
L 157.132249 293.579531 
L 159.268134 293.570598 
L 163.539904 293.26043 
L 167.811675 293.544042 
L 169.94756 293.144491 
L 172.083445 291.981248 
L 174.21933 292.600778 
L 178.4911 292.606742 
L 180.626986 292.130894 
L 184.898756 291.809146 
L 187.034641 291.378917 
L 189.170526 291.891614 
L 191.306411 289.855626 
L 193.442297 290.706076 
L 195.578182 291.321759 
L 197.714067 290.301407 
L 199.849952 290.19717 
L 201.985837 289.540828 
L 204.121722 290.093644 
L 206.257608 290.107296 
L 208.393493 289.021609 
L 210.529378 289.092977 
L 212.665263 288.89452 
L 214.801148 288.923098 
L 216.937033 287.451032 
L 219.072919 287.212519 
L 221.208804 286.403441 
L 223.344689 286.306235 
L 225.480574 286.553075 
L 227.616459 285.436554 
L 231.88823 283.95012 
L 234.024115 284.794302 
L 236.16 280.847516 
L 238.295885 282.695778 
L 240.43177 282.427516 
L 242.567656 280.673918 
L 244.703541 283.787857 
L 246.839426 281.681845 
L 248.975311 281.380663 
L 251.111196 280.817748 
L 253.247081 280.810998 
L 255.382967 279.638137 
L 257.518852 279.120716 
L 261.790622 277.454619 
L 263.926507 274.280769 
L 266.062392 276.469706 
L 268.198278 274.764085 
L 270.334163 276.205637 
L 272.470048 278.229777 
L 274.605933 273.931384 
L 276.741818 275.079514 
L 278.877703 268.249769 
L 281.013589 269.22824 
L 283.149474 272.940821 
L 285.285359 267.529282 
L 287.421244 271.83809 
L 289.557129 269.493113 
L 291.693014 269.438999 
L 293.8289 268.416595 
L 295.964785 263.493698 
L 298.10067 262.625562 
L 300.236555 256.374258 
L 302.37244 260.042986 
L 304.508325 258.964542 
L 306.644211 258.280421 
L 308.780096 255.705818 
L 310.915981 258.206619 
L 313.051866 249.200266 
L 315.187751 249.972955 
L 317.323636 250.95999 
L 319.459522 248.666667 
L 321.595407 241.836322 
L 323.731292 245.298197 
L 325.867177 240.233649 
L 328.003062 231.541432 
L 330.138947 238.921775 
L 332.274833 239.283595 
L 334.410718 219.554432 
L 336.546603 229.757422 
L 338.682488 222.185572 
L 340.818373 219.757528 
L 342.954258 216.295545 
L 345.090144 205.545784 
L 347.226029 183.597083 
L 349.361914 200.334233 
L 351.497799 185.586601 
L 353.633684 208.90771 
L 355.769569 191.359762 
L 357.905455 208.335499 
L 360.04134 200.751916 
L 362.177225 191.250507 
L 364.31311 174.133115 
L 366.448995 144.80324 
L 368.58488 148.314794 
L 370.720766 139.856783 
L 372.856651 125.223644 
L 374.992536 156.748845 
L 377.128421 136.595457 
L 379.264306 118.066898 
L 381.400191 138.427912 
L 383.536077 147.763072 
L 385.671962 148.544212 
L 387.807847 142.503217 
L 389.943732 116.026657 
L 392.079617 124.466267 
L 394.215502 112.40652 
L 396.351388 141.092887 
L 398.487273 136.955178 
L 398.487273 136.955178 
" clip-path="url(#p4bb86535cc)" style="fill: none; stroke: #ff7f0e; stroke-width: 1.5; stroke-linecap: square"/>
   </g>
   <g id="line2d_20">
    <path d="M 73.832727 295.178552 
L 75.968612 294.969811 
L 78.104498 294.96054 
L 80.240383 294.868886 
L 82.376268 294.95394 
L 84.512153 294.672526 
L 86.648038 294.677986 
L 88.783923 294.026338 
L 90.919809 294.652875 
L 93.055694 294.06607 
L 95.191579 293.464494 
L 97.327464 294.017839 
L 99.463349 294.006395 
L 101.599234 294.277193 
L 103.73512 293.027019 
L 105.871005 293.238834 
L 108.00689 293.172257 
L 110.142775 293.521349 
L 112.27866 293.16436 
L 114.414545 291.722668 
L 116.550431 292.592631 
L 118.686316 291.389117 
L 120.822201 292.218593 
L 122.958086 291.88874 
L 125.093971 290.898333 
L 127.229856 291.113817 
L 129.365742 291.326934 
L 131.501627 290.588366 
L 133.637512 292.728817 
L 135.773397 289.001156 
L 137.909282 289.16447 
L 140.045167 291.500607 
L 142.181053 291.642458 
L 144.316938 291.63836 
L 146.452823 291.186496 
L 148.588708 289.525904 
L 150.724593 289.423224 
L 152.860478 291.769669 
L 154.996364 288.874452 
L 157.132249 286.336492 
L 159.268134 291.011912 
L 161.404019 285.450484 
L 163.539904 285.814747 
L 165.675789 287.51161 
L 167.811675 286.0159 
L 169.94756 288.256622 
L 172.083445 285.050982 
L 174.21933 286.868925 
L 176.355215 285.929844 
L 178.4911 287.944749 
L 180.626986 286.923924 
L 182.762871 281.476828 
L 184.898756 285.929854 
L 187.034641 286.412576 
L 189.170526 287.119601 
L 191.306411 285.495977 
L 193.442297 284.151742 
L 195.578182 285.457648 
L 197.714067 282.173279 
L 199.849952 280.050554 
L 201.985837 283.018297 
L 204.121722 284.900468 
L 206.257608 280.915837 
L 208.393493 282.046857 
L 210.529378 279.708557 
L 212.665263 283.761771 
L 214.801148 282.702478 
L 216.937033 280.424545 
L 219.072919 280.746675 
L 221.208804 282.035773 
L 223.344689 283.37542 
L 225.480574 275.240902 
L 227.616459 280.878466 
L 229.752344 272.061248 
L 231.88823 280.595862 
L 234.024115 281.138316 
L 236.16 272.986746 
L 238.295885 278.22889 
L 240.43177 279.775732 
L 242.567656 272.251417 
L 244.703541 272.78744 
L 246.839426 263.82002 
L 248.975311 270.889219 
L 251.111196 272.501749 
L 253.247081 269.998574 
L 255.382967 273.155186 
L 257.518852 272.3223 
L 259.654737 265.662699 
L 261.790622 265.526552 
L 263.926507 260.142475 
L 266.062392 262.869067 
L 268.198278 264.692381 
L 270.334163 264.138136 
L 272.470048 267.7416 
L 274.605933 265.590994 
L 276.741818 259.82144 
L 278.877703 262.717251 
L 281.013589 248.854455 
L 283.149474 254.342403 
L 285.285359 253.520524 
L 287.421244 260.798504 
L 289.557129 261.384862 
L 291.693014 254.219384 
L 293.8289 250.494793 
L 295.964785 251.078179 
L 298.10067 256.986196 
L 300.236555 252.533205 
L 302.37244 245.381951 
L 304.508325 227.25906 
L 306.644211 220.154367 
L 308.780096 238.483667 
L 310.915981 225.084748 
L 313.051866 234.428195 
L 315.187751 235.76179 
L 317.323636 229.149622 
L 319.459522 226.941198 
L 321.595407 233.547334 
L 323.731292 218.504613 
L 325.867177 234.847369 
L 328.003062 231.153769 
L 330.138947 233.711847 
L 332.274833 237.928126 
L 334.410718 208.765065 
L 336.546603 212.725748 
L 338.682488 226.519764 
L 340.818373 217.15105 
L 342.954258 216.758433 
" clip-path="url(#p4bb86535cc)" style="fill: none; stroke: #2ca02c; stroke-width: 1.5; stroke-linecap: square"/>
   </g>
   <g id="patch_3">
    <path d="M 57.6 307.584 
L 57.6 41.472 
" style="fill: none; stroke: #000000; stroke-width: 0.8; stroke-linejoin: miter; stroke-linecap: square"/>
   </g>
   <g id="patch_4">
    <path d="M 414.72 307.584 
L 414.72 41.472 
" style="fill: none; stroke: #000000; stroke-width: 0.8; stroke-linejoin: miter; stroke-linecap: square"/>
   </g>
   <g id="patch_5">
    <path d="M 57.6 307.584 
L 414.72 307.584 
" style="fill: none; stroke: #000000; stroke-width: 0.8; stroke-linejoin: miter; stroke-linecap: square"/>
   </g>
   <g id="patch_6">
    <path d="M 57.6 41.472 
L 414.72 41.472 
" style="fill: none; stroke: #000000; stroke-width: 0.8; stroke-linejoin: miter; stroke-linecap: square"/>
   </g>
  </g>
 </g>
 <defs>
  <clipPath id="p4bb86535cc">
   <rect x="57.6" y="41.472" width="357.12" height="266.112"/>
  </clipPath>
 </defs>
</svg>
